<?xml version="1.0" standalone="no"?>
<!DOCTYPE svg PUBLIC "-//W3C//DTD SVG 20010904//EN"
 "http://www.w3.org/TR/2001/REC-SVG-20010904/DTD/svg10.dtd">
<svg version="1.0" xmlns="http://www.w3.org/2000/svg"
 width="577.000000pt" height="433.000000pt" viewBox="0 0 577.000000 433.000000"
 preserveAspectRatio="xMidYMid meet">

<g transform="translate(0.000000,433.000000) scale(0.100000,-0.100000)"
fill="#000000" stroke="none">
<path d="M3580 3020 c-36 -9 -70 -41 -70 -68 0 -13 -12 -14 -77 -8 -43 3 -136
11 -208 17 -172 15 -708 6 -885 -15 -168 -19 -160 -20 -160 2 0 10 -12 29 -26
43 -24 22 -33 24 -132 23 -121 -1 -205 -25 -254 -75 -24 -23 -28 -36 -28 -82
0 -42 -5 -58 -21 -73 -56 -50 -99 -143 -179 -382 -88 -267 -122 -464 -122
-707 0 -149 3 -182 25 -266 14 -53 37 -119 52 -148 68 -134 212 -223 308 -192
59 20 76 44 137 191 104 249 186 380 279 444 l42 30 68 -18 c63 -16 108 -17
551 -11 372 5 492 10 522 21 34 12 44 12 68 -1 94 -49 226 -246 315 -470 59
-149 84 -175 172 -175 161 1 289 169 324 426 14 109 6 352 -16 479 -9 50 -20
116 -25 147 -21 121 -113 401 -173 526 -16 34 -47 82 -68 106 -33 37 -39 51
-39 88 0 55 -19 82 -78 112 -83 42 -211 57 -302 36z m20 -70 c0 -13 -7 -20
-20 -20 -19 0 -27 20 -13 33 13 14 33 6 33 -13z m-1784 -86 c-3 -8 -10 -14
-16 -14 -14 0 -13 43 3 59 10 10 13 8 15 -9 2 -12 1 -28 -2 -36z m1427 47 c54
-5 104 -15 112 -21 22 -18 18 -73 -15 -235 -36 -169 -39 -181 -73 -217 l-26
-28 -389 0 -390 0 -31 35 c-17 20 -33 45 -36 58 -71 319 -75 350 -52 379 9 12
40 19 117 26 137 12 658 14 783 3z m445 -52 c250 -39 298 -84 406 -387 46
-127 70 -217 107 -387 37 -169 50 -435 30 -576 -23 -152 -115 -319 -177 -319
-30 0 -45 23 -96 147 -131 320 -254 588 -338 738 -60 108 -108 186 -147 244
-85 124 -85 122 -48 309 35 174 51 219 83 237 34 18 20 19 180 -6z m-1486 -9
c34 -27 43 -52 78 -228 37 -183 35 -196 -49 -321 -132 -195 -278 -493 -428
-870 -47 -119 -92 -224 -101 -233 -26 -30 -61 -22 -104 23 -141 148 -169 537
-69 964 31 130 97 337 138 430 68 155 134 204 323 235 144 24 182 24 212 0z
m555 -615 c-4 -8 -11 -15 -17 -15 -6 0 -6 7 2 20 14 22 24 19 15 -5z m176 0
c-3 -8 -13 -15 -22 -14 -10 0 -11 2 -3 6 6 2 12 11 12 19 0 9 4 13 10 9 5 -3
7 -12 3 -20z m84 0 c-4 -8 -12 -15 -19 -14 -10 0 -10 2 0 6 6 2 12 12 12 21 0
8 3 13 6 9 4 -3 4 -13 1 -22z m-172 -4 c-3 -6 -14 -11 -23 -11 -13 0 -13 2 4
14 21 15 30 14 19 -3z m42 -56 c-4 -8 -13 -15 -22 -15 -13 0 -12 3 3 18 19 21
27 20 19 -3z m90 0 c-4 -8 -13 -15 -22 -15 -13 0 -12 3 3 18 19 21 27 20 19
-3z m-173 0 c-4 -8 -13 -15 -22 -15 -13 0 -12 3 4 15 24 18 25 18 18 0z m-349
-5 c16 -7 12 -9 -18 -9 -76 -2 -133 -51 -152 -133 l-13 -53 -1 45 c-1 62 26
109 79 137 45 24 72 27 105 13z m826 -9 c-31 -11 -63 -31 -77 -47 -29 -36 -48
-98 -39 -133 4 -19 3 -22 -5 -11 -5 8 -10 35 -10 60 0 83 65 150 145 150 l40
-1 -54 -18z m-353 -263 c-5 -14 -109 -24 -135 -14 -32 13 3 26 68 26 52 0 70
-3 67 -12z"/>
<path d="M3499 2794 c-7 -8 -14 -39 -17 -69 -4 -46 -2 -54 17 -64 25 -14 57 0
64 26 15 53 17 96 6 109 -15 19 -53 18 -70 -2z m51 -26 c0 -32 -22 -89 -33
-85 -12 4 -12 30 -2 75 6 23 35 31 35 10z"/>
<path d="M3680 2702 c-13 -11 -23 -33 -27 -59 -5 -37 -2 -46 25 -73 22 -22 40
-30 65 -30 89 0 128 113 58 167 -24 19 -95 16 -121 -5z m109 -28 c12 -15 21
-35 21 -45 0 -28 -36 -59 -69 -59 -55 0 -81 70 -41 110 28 28 64 25 89 -6z"/>
<path d="M3524 2536 c-63 -28 -65 -129 -3 -161 43 -23 77 -18 110 14 50 50 33
127 -33 150 -38 13 -36 13 -74 -3z m86 -36 c40 -40 11 -110 -45 -110 -31 0
-65 33 -65 62 0 29 38 68 67 68 13 0 32 -9 43 -20z"/>
<path d="M3884 2540 c-54 -22 -71 -99 -31 -145 66 -76 188 -5 156 92 -16 51
-72 74 -125 53z m85 -46 c12 -15 21 -33 21 -41 0 -21 -46 -63 -70 -63 -53 0
-81 84 -38 114 33 23 64 19 87 -10z"/>
<path d="M3685 2348 c-39 -35 -44 -86 -11 -125 49 -58 129 -49 156 16 37 90
-72 172 -145 109z m109 -30 c9 -12 16 -32 16 -44 0 -23 -42 -64 -65 -64 -23 0
-65 41 -65 64 0 38 28 66 65 66 24 0 39 -7 49 -22z"/>
<path d="M2131 2782 c-11 -20 2 -97 21 -119 15 -18 53 -16 69 3 10 13 10 25
-2 72 -13 53 -16 57 -46 60 -23 2 -34 -2 -42 -16z m59 -43 c12 -45 6 -79 -11
-62 -13 13 -30 84 -23 95 11 18 24 6 34 -33z"/>
<path d="M1883 2690 c-21 -8 -23 -16 -23 -77 0 -65 1 -69 37 -100 20 -18 44
-33 53 -33 9 0 33 17 53 38 33 34 37 43 37 90 0 69 -22 92 -87 91 -27 0 -58
-4 -70 -9z m125 -75 c3 -45 0 -54 -27 -79 l-29 -28 -31 23 c-28 20 -31 28 -31
74 0 29 3 55 7 59 4 4 30 6 58 4 l50 -3 3 -50z"/>
<path d="M1706 2514 c-3 -9 -6 -44 -6 -79 0 -75 10 -85 89 -85 45 0 53 4 85
38 20 20 36 44 36 52 0 9 -14 32 -31 53 -30 36 -32 37 -99 37 -53 0 -69 -4
-74 -16z m155 -45 l21 -30 -28 -30 c-23 -24 -36 -29 -75 -29 -51 0 -59 10 -59
76 0 41 5 44 66 44 47 0 55 -3 75 -31z"/>
<path d="M2018 2496 c-35 -44 -35 -62 2 -105 25 -29 37 -35 83 -39 84 -7 97 5
97 86 0 40 -5 73 -12 80 -7 7 -40 12 -77 12 -63 0 -67 -1 -93 -34z m150 -53
l-3 -58 -45 -3 c-37 -2 -50 2 -72 23 -34 31 -35 42 -6 72 17 18 32 23 75 23
l54 0 -3 -57z"/>
<path d="M1893 2370 c-31 -28 -33 -34 -33 -93 0 -36 5 -68 12 -75 7 -7 40 -12
80 -12 79 0 88 9 88 89 0 42 -5 56 -31 86 -39 44 -72 45 -116 5z m94 -22 c18
-17 23 -32 23 -75 l0 -53 -60 0 -60 0 0 52 c0 39 5 57 22 75 27 29 45 29 75 1z"/>
</g>
</svg>
